<svg id="Capa_1" enable-background="new 0 0 512 512" height="512" viewBox="0 0 512 512" width="512" xmlns="http://www.w3.org/2000/svg"><g><path d="m45 0c-24.813 0-45 20.187-45 45v183h228v-228zm104 129h-20v20c0 8.284-6.716 15-15 15s-15-6.716-15-15v-20h-20c-8.284 0-15-6.716-15-15s6.716-15 15-15h20v-20c0-8.284 6.716-15 15-15s15 6.716 15 15v20h20c8.284 0 15 6.716 15 15s-6.716 15-15 15z"/><g><path d="m477.834 228h8.166v-183c0-24.813-20.187-45-45-45h-183v222.59c29.686-22.335 66.573-35.59 106.5-35.59 43.052 0 82.568 15.411 113.334 41zm-155.834-114c0-8.284 6.716-15 15-15h70c8.284 0 15 6.716 15 15s-6.716 15-15 15h-70c-8.284 0-15-6.716-15-15z"/><path d="m222.59 258h-222.59v183c0 24.813 20.187 45 45 45h183v-8.166c-25.589-30.766-41-70.283-41-113.334 0-39.927 13.255-76.814 35.59-106.5zm-72.984 128.394c5.858 5.858 5.858 15.355 0 21.213-2.928 2.929-6.767 4.393-10.606 4.393s-7.678-1.464-10.606-4.394l-14.394-14.393-14.394 14.394c-2.928 2.929-6.767 4.393-10.606 4.393s-7.678-1.464-10.606-4.394c-5.858-5.858-5.858-15.355 0-21.213l14.393-14.393-14.394-14.394c-5.858-5.858-5.858-15.355 0-21.213 5.857-5.858 15.355-5.858 21.213 0l14.394 14.394 14.394-14.394c5.857-5.858 15.355-5.858 21.213 0s5.858 15.355 0 21.213l-14.394 14.394z"/></g><g><path d="m364.5 217c-81.332 0-147.5 66.168-147.5 147.5s66.168 147.5 147.5 147.5 147.5-66.168 147.5-147.5-66.168-147.5-147.5-147.5zm35 187.5h-70c-8.284 0-15-6.716-15-15s6.716-15 15-15h70c8.284 0 15 6.716 15 15s-6.716 15-15 15zm0-50h-70c-8.284 0-15-6.716-15-15s6.716-15 15-15h70c8.284 0 15 6.716 15 15s-6.716 15-15 15z"/></g></g></svg>