<svg width="512" height="512" xmlns="http://www.w3.org/2000/svg">

 <g>
  <title>background</title>
  <rect fill="none" id="canvas_background" height="514" width="514" y="-1" x="-1"/>
 </g>
 <g>
  <title>Layer 1</title>
  <g id="svg_11">
   <polygon id="svg_2" points="432.2785453796387,459.2767639160156 255.99998092651367,508.3044128417969 79.72141647338867,459.2767639160156 39.045318603515625,4.002359867095947 472.9546928405762,4.002359867095947 " fill="#1F62AE"/>
   <polygon id="svg_3" points="255.98447799682617,35.521236419677734 255.98447799682617,472.8456726074219 399.0404167175293,429.63323974609375 437.0976982116699,35.521236419677734 " fill="#347DC6"/>
   <polygon id="svg_4" points="385.5746269226074,98.55900573730469 125.9294548034668,98.55900573730469 132.01926803588867,161.5967559814453 255.98447799682617,161.5967559814453 135.8931541442871,208.71746826171875 141.61108016967773,271.912841796875 310.2502555847168,271.912841796875 304.9198417663574,334.9505615234375 255.98447799682617,350.5523986816406 207.34362411499023,334.6983947753906 202.26105880737305,303.43170166015625 144.46226119995117,303.43170166015625 151.57477951049805,382.0240173339844 255.98447799682617,413.5902099609375 360.2392692565918,382.0082702636719 375.59540939331055,208.71746826171875 256.3873100280762,208.71746826171875 379.9497489929199,161.5967559814453 " fill="#FFFFFF"/>
  </g>
 </g>
</svg>