<svg width="512" height="512" xmlns="http://www.w3.org/2000/svg">

 <g>
  <title>background</title>
  <rect fill="none" id="canvas_background" height="402" width="582" y="-1" x="-1"/>
 </g>
 <g>
  <title>Layer 1</title>
  <path fill="#e5e5e5" id="svg_1" d="m381.650604,6.483209l-250.111603,0c-69.066242,0 -125.055807,55.856406 -125.055807,124.758399l0,249.516785c0,68.901947 55.989565,124.758392 125.055807,124.758392l250.111603,0c69.066223,0 125.055817,-55.856445 125.055817,-124.758392l0,-249.516785c0,-68.901993 -55.989594,-124.758399 -125.055817,-124.758399zm-67.156006,416.447669c-8.872742,1.722717 -12.017883,-3.727173 -12.017883,-8.407654c0,-5.733704 0.216766,-24.602386 0.216766,-48.007019c0,-16.323608 -5.59314,-26.994629 -11.86673,-32.402893c38.948608,-4.333252 79.82309,-19.129608 79.82309,-86.350479c0,-19.113007 -6.755096,-34.73381 -17.966309,-46.981949c1.792419,-4.419556 7.781555,-22.201797 -1.749756,-46.302002c0,0 -14.664856,-4.705444 -48.04541,17.934036c-13.968781,-3.902863 -28.938965,-5.816879 -43.779938,-5.905228c-14.884796,0.065491 -29.836258,2.002365 -43.784134,5.881302c-33.394058,-22.636368 -48.083969,-17.935059 -48.083969,-17.935059c-9.508408,24.079422 -3.520309,41.882446 -1.708038,46.306168c-11.187302,12.247116 -18.010132,27.869995 -18.010132,46.979858c0,67.045135 40.832825,82.059845 79.654312,86.486694c-5.009537,4.380035 -9.532379,12.091125 -11.106018,23.398438c-9.965897,4.487152 -35.3022,12.20343 -50.909164,-14.532318c0,0 -9.22287,-16.799713 -26.773407,-18.041077c0,0 -17.072205,-0.21936 -1.182816,10.632507c0,0 11.478027,5.379211 19.413879,25.602539c0,0 10.27124,34.036133 58.903351,23.464966c0.091705,14.602936 0.241791,25.606628 0.241791,29.770477c0,4.643036 -3.192078,10.045135 -11.934479,8.427429c-69.50708,-23.16037 -119.606522,-88.747925 -119.606522,-166.058655c0,-96.662781 78.293243,-175.018333 174.839447,-175.018333c96.59314,0 174.886414,78.355553 174.886414,175.018333c0.002106,77.291992 -50.054657,142.853546 -119.454346,166.039917z"/>
 </g>
</svg>