<svg width="512" height="512" xmlns="http://www.w3.org/2000/svg" clip-rule="evenodd">

 <g>
  <title>background</title>
  <rect fill="none" id="canvas_background" height="402" width="582" y="-1" x="-1"/>
 </g>
 <g>
  <title>Layer 1</title>
  <path fill="#e5e5e5" id="svg_1" d="m449.446014,0c34.524994,0 62.553986,28.030001 62.553986,62.554001l0,386.892014c0,34.523987 -28.029999,62.553986 -62.553986,62.553986l-386.891994,0c-34.524,0 -62.554,-28.029999 -62.554,-62.553986l0,-386.892014c0,-34.524 28.028991,-62.554001 62.554,-62.554001l386.891994,0zm-288.984985,423.278015l0,-225.716995l-75.040001,0l0,225.716995l75.040001,0zm270.539001,0l0,-129.438995c0,-69.332993 -37.018005,-101.585999 -86.381012,-101.585999c-39.803986,0 -57.634003,21.890991 -67.616974,37.265991l0,-31.957993l-75.021011,0c0.994995,21.181 0,225.716995 0,225.716995l75.020004,0l0,-126.056c0,-6.747986 0.485992,-13.492004 2.473999,-18.315002c5.414001,-13.475006 17.766998,-27.434006 38.493988,-27.434006c27.13501,0 38.007019,20.707016 38.007019,51.037003l0,120.768005l75.023987,0zm-307.552002,-334.555992c-25.673996,0 -42.447998,16.878998 -42.447998,39.001984c0,21.658012 16.264,39.002007 41.455002,39.002007l0.484001,0c26.165001,0 42.452003,-17.344009 42.452003,-39.002007c-0.485001,-22.091988 -16.241013,-38.953987 -41.943008,-39.001984z"/>
 </g>
</svg>