<svg width="512" height="512" xmlns="http://www.w3.org/2000/svg">

 <g>
  <title>background</title>
  <rect fill="none" id="canvas_background" height="402" width="582" y="-1" x="-1"/>
 </g>
 <g>
  <title>Layer 1</title>
  <path fill="#e5e5e5" id="svg_1" d="m381.650574,6.483265l-250.111557,0c-69.066204,0 -125.055752,55.723248 -125.055752,124.460964l0,248.921951c0,68.737701 55.989548,124.460968 125.055752,124.460968l250.111557,0c69.066193,0 125.055756,-55.723267 125.055756,-124.460968l0,-248.921951c0,-68.737717 -55.989563,-124.460964 -125.055756,-124.460964zm-6.760345,116.16357l-116.101746,91.194611l-116.109055,-91.194611l232.2108,0zm5.718201,257.219345l-243.858749,0l0,-182.477417l116.639511,89.254089c1.589264,1.21347 3.454681,1.852356 5.399292,1.852356c1.930023,0 3.659973,-0.605682 5.290924,-1.851379l116.529022,-89.27269l0,182.495041zm53.148712,-29.906921c0,17.635071 -14.62323,31.981262 -32.596863,31.981262l-11.172668,0l0,-203.131714l-131.25647,100.46698l-131.360634,-100.43898l0,203.100571l-10.359833,0.003143c-17.847542,0 -32.367561,-14.346191 -32.367561,-31.981262l0,-195.640213c0,-17.76059 14.217796,-31.672211 32.367561,-31.672211l9.497993,0c0.609634,0 1.116119,-0.151428 1.509003,-0.325676l130.768707,102.701027l130.847961,-102.667839c0.388702,0.163879 0.863922,0.293533 1.425629,0.293533l10.099304,0c17.97464,-0.001045 32.59787,14.207207 32.59787,31.671165l0,195.640213z"/>
 </g>
</svg>